<?xml version="1.0" standalone="no"?>
<!DOCTYPE svg PUBLIC "-//W3C//DTD SVG 20010904//EN"
 "http://www.w3.org/TR/2001/REC-SVG-20010904/DTD/svg10.dtd">
<svg version="1.0" xmlns="http://www.w3.org/2000/svg"
 width="108.000000pt" height="108.000000pt" viewBox="0 0 108.000000 108.000000"
 preserveAspectRatio="xMidYMid meet">
<metadata>
Created by potrace 1.14, written by Peter Selinger 2001-2017
</metadata>
<g transform="translate(0.000000,108.000000) scale(0.100000,-0.100000)"
fill="#000000" stroke="none">
<path d="M110 1050 c0 -23 33 -140 39 -140 4 0 12 5 18 11 8 8 13 8 17 0 9
-15 59 -14 74 1 9 9 15 9 24 0 15 -15 51 -15 66 0 9 9 15 9 24 0 7 -7 21 -12
33 -12 12 0 26 5 33 12 9 9 15 9 24 0 14 -14 68 -16 68 -2 0 6 7 10 15 10 8 0
15 -4 15 -10 0 -16 48 -11 58 6 8 14 10 14 24 0 16 -15 58 -18 58 -4 0 4 11 8
25 8 14 0 25 -4 25 -9 0 -13 42 -5 50 10 10 16 13 16 42 -3 23 -15 28 -15 38
-3 7 8 23 13 35 11 21 -4 25 2 38 55 l15 59 -29 0 c-22 0 -29 -5 -29 -20 0
-13 -7 -20 -20 -20 -13 0 -20 7 -20 20 0 20 -5 23 -35 23 -27 0 -35 -3 -34
-10 3 -19 -2 -30 -15 -30 -8 0 -13 8 -11 19 2 10 1 18 -3 19 -4 0 -21 2 -39 5
-25 3 -31 1 -27 -11 4 -8 1 -15 -6 -15 -6 0 -8 -4 -5 -10 3 -5 0 -7 -8 -4 -8
3 -14 12 -13 21 1 12 -9 17 -36 19 -21 2 -37 0 -37 -4 5 -34 -15 -44 -24 -13
-7 29 -64 26 -70 -3 -4 -21 -5 -21 -12 2 -6 18 -15 22 -46 22 -34 0 -39 -3
-40 -22 l0 -23 -11 23 c-9 17 -20 22 -49 22 -20 0 -40 -6 -43 -12 -5 -10 -7
-10 -12 0 -3 7 -24 12 -51 12 -36 0 -44 -3 -39 -15 3 -8 1 -15 -4 -15 -6 0
-10 7 -10 15 0 11 -11 15 -40 15 -22 0 -40 -5 -40 -10z"/>
<path d="M158 666 c4 -237 14 -312 56 -394 34 -65 85 -134 96 -127 5 3 12 0
16 -6 5 -8 3 -9 -7 -4 -12 8 -12 6 0 -8 7 -9 17 -14 22 -11 5 3 9 -2 9 -10 0
-9 7 -16 15 -16 8 0 15 -4 15 -10 0 -5 5 -10 10 -10 6 0 20 -9 32 -20 12 -11
30 -20 40 -20 10 0 21 -6 24 -13 5 -15 92 -19 109 -5 5 4 38 26 72 48 78 51
156 136 194 211 47 95 60 170 63 383 2 105 6 198 10 206 6 14 -24 16 -241 19
-137 2 -313 4 -393 5 l-145 2 3 -220z"/>
</g>
</svg>
